<?xml version="1.0" encoding="UTF-8" standalone="no"?>
<!DOCTYPE svg PUBLIC "-//W3C//DTD SVG 1.1//EN"
 "http://www.w3.org/Graphics/SVG/1.1/DTD/svg11.dtd">
<!-- Generated by graphviz version 2.38.0 (20140413.2041)
 -->
<!-- Title: %3 Pages: 1 -->
<svg width="974pt" height="260pt"
 viewBox="0.00 0.00 973.77 260.00" xmlns="http://www.w3.org/2000/svg" xmlns:xlink="http://www.w3.org/1999/xlink">
<g id="graph0" class="graph" transform="scale(1 1) rotate(0) translate(4 256)">
<title>%3</title>
<polygon fill="white" stroke="none" points="-4,4 -4,-256 969.769,-256 969.769,4 -4,4"/>
<!-- node&#45;0 -->
<g id="node1" class="node"><title>node&#45;0</title>
<ellipse fill="none" stroke="black" cx="284.025" cy="-234" rx="284.05" ry="18"/>
<text text-anchor="middle" x="284.025" y="-230.3" font-family="Times,serif" font-size="14.00">简单句: 他指出要深入贯彻……论述，提高……站位，落实……责任</text>
</g>
<!-- node&#45;1 -->
<g id="node2" class="node"><title>node&#45;1</title>
<ellipse fill="none" stroke="black" cx="188.025" cy="-162" rx="34.394" ry="18"/>
<text text-anchor="middle" x="188.025" y="-158.3" font-family="Times,serif" font-size="14.00">主: 他</text>
</g>
<!-- node&#45;0&#45;&gt;node&#45;1 -->
<g id="edge1" class="edge"><title>node&#45;0&#45;&gt;node&#45;1</title>
<path fill="none" stroke="black" d="M260.786,-216.055C247.184,-206.137 229.928,-193.555 215.635,-183.133"/>
<polygon fill="black" stroke="black" points="217.32,-180.03 207.178,-176.966 213.196,-185.686 217.32,-180.03"/>
</g>
<!-- node&#45;2 -->
<g id="node3" class="node"><title>node&#45;2</title>
<ellipse fill="none" stroke="black" cx="284.025" cy="-162" rx="43.5923" ry="18"/>
<text text-anchor="middle" x="284.025" y="-158.3" font-family="Times,serif" font-size="14.00">谓: 指出</text>
</g>
<!-- node&#45;0&#45;&gt;node&#45;2 -->
<g id="edge2" class="edge"><title>node&#45;0&#45;&gt;node&#45;2</title>
<path fill="none" stroke="black" d="M284.025,-215.697C284.025,-207.983 284.025,-198.712 284.025,-190.112"/>
<polygon fill="black" stroke="black" points="287.525,-190.104 284.025,-180.104 280.525,-190.104 287.525,-190.104"/>
</g>
<!-- node&#45;3 -->
<g id="node4" class="node"><title>node&#45;3</title>
<ellipse fill="none" stroke="black" cx="583.025" cy="-162" rx="237.758" ry="18"/>
<text text-anchor="middle" x="583.025" y="-158.3" font-family="Times,serif" font-size="14.00">宾: 要深入贯彻……论述，提高……站位，落实……责任</text>
</g>
<!-- node&#45;0&#45;&gt;node&#45;3 -->
<g id="edge3" class="edge"><title>node&#45;0&#45;&gt;node&#45;3</title>
<path fill="none" stroke="black" d="M354.505,-216.5C399.221,-206.031 457.173,-192.464 503.527,-181.611"/>
<polygon fill="black" stroke="black" points="504.595,-184.956 513.534,-179.269 502.999,-178.14 504.595,-184.956"/>
</g>
<!-- node&#45;4 -->
<g id="node5" class="node"><title>node&#45;4</title>
<ellipse fill="none" stroke="black" cx="358.025" cy="-90" rx="112.38" ry="18"/>
<text text-anchor="middle" x="358.025" y="-86.3" font-family="Times,serif" font-size="14.00">并行1: 深入贯彻……论述</text>
</g>
<!-- node&#45;3&#45;&gt;node&#45;4 -->
<g id="edge4" class="edge"><title>node&#45;3&#45;&gt;node&#45;4</title>
<path fill="none" stroke="black" d="M529.703,-144.411C495.731,-133.842 451.693,-120.141 416.726,-109.263"/>
<polygon fill="black" stroke="black" points="417.708,-105.903 407.12,-106.274 415.628,-112.587 417.708,-105.903"/>
</g>
<!-- node&#45;8 -->
<g id="node8" class="node"><title>node&#45;8</title>
<ellipse fill="none" stroke="black" cx="583.025" cy="-90" rx="94.4839" ry="18"/>
<text text-anchor="middle" x="583.025" y="-86.3" font-family="Times,serif" font-size="14.00">并行2: 提高……站位</text>
</g>
<!-- node&#45;3&#45;&gt;node&#45;8 -->
<g id="edge7" class="edge"><title>node&#45;3&#45;&gt;node&#45;8</title>
<path fill="none" stroke="black" d="M583.025,-143.697C583.025,-135.983 583.025,-126.712 583.025,-118.112"/>
<polygon fill="black" stroke="black" points="586.525,-118.104 583.025,-108.104 579.525,-118.104 586.525,-118.104"/>
</g>
<!-- node&#45;11 -->
<g id="node11" class="node"><title>node&#45;11</title>
<ellipse fill="none" stroke="black" cx="789.025" cy="-90" rx="94.4839" ry="18"/>
<text text-anchor="middle" x="789.025" y="-86.3" font-family="Times,serif" font-size="14.00">并行3: 落实……责任</text>
</g>
<!-- node&#45;3&#45;&gt;node&#45;11 -->
<g id="edge10" class="edge"><title>node&#45;3&#45;&gt;node&#45;11</title>
<path fill="none" stroke="black" d="M632.105,-144.322C663.166,-133.768 703.336,-120.118 735.257,-109.27"/>
<polygon fill="black" stroke="black" points="736.538,-112.532 744.88,-106.001 734.286,-105.904 736.538,-112.532"/>
</g>
<!-- node&#45;6 -->
<g id="node6" class="node"><title>node&#45;6</title>
<ellipse fill="none" stroke="black" cx="225.025" cy="-18" rx="61.99" ry="18"/>
<text text-anchor="middle" x="225.025" y="-14.3" font-family="Times,serif" font-size="14.00">谓: 深入贯彻</text>
</g>
<!-- node&#45;4&#45;&gt;node&#45;6 -->
<g id="edge5" class="edge"><title>node&#45;4&#45;&gt;node&#45;6</title>
<path fill="none" stroke="black" d="M326.842,-72.5881C307.667,-62.4957 282.972,-49.4985 262.705,-38.8317"/>
<polygon fill="black" stroke="black" points="264.22,-35.6738 253.741,-34.1135 260.96,-41.8683 264.22,-35.6738"/>
</g>
<!-- node&#45;7 -->
<g id="node7" class="node"><title>node&#45;7</title>
<ellipse fill="none" stroke="black" cx="366.025" cy="-18" rx="61.99" ry="18"/>
<text text-anchor="middle" x="366.025" y="-14.3" font-family="Times,serif" font-size="14.00">宾: ……论述</text>
</g>
<!-- node&#45;4&#45;&gt;node&#45;7 -->
<g id="edge6" class="edge"><title>node&#45;4&#45;&gt;node&#45;7</title>
<path fill="none" stroke="black" d="M360.002,-71.6966C360.884,-63.9827 361.943,-54.7125 362.926,-46.1124"/>
<polygon fill="black" stroke="black" points="366.412,-46.4371 364.07,-36.1043 359.457,-45.6422 366.412,-46.4371"/>
</g>
<!-- node&#45;9 -->
<g id="node9" class="node"><title>node&#45;9</title>
<ellipse fill="none" stroke="black" cx="520.025" cy="-18" rx="43.5923" ry="18"/>
<text text-anchor="middle" x="520.025" y="-14.3" font-family="Times,serif" font-size="14.00">谓: 提高</text>
</g>
<!-- node&#45;8&#45;&gt;node&#45;9 -->
<g id="edge8" class="edge"><title>node&#45;8&#45;&gt;node&#45;9</title>
<path fill="none" stroke="black" d="M567.774,-72.055C559.922,-63.3303 550.215,-52.5444 541.608,-42.9808"/>
<polygon fill="black" stroke="black" points="543.992,-40.3986 534.701,-35.307 538.789,-45.0814 543.992,-40.3986"/>
</g>
<!-- node&#45;10 -->
<g id="node10" class="node"><title>node&#45;10</title>
<ellipse fill="none" stroke="black" cx="643.025" cy="-18" rx="61.99" ry="18"/>
<text text-anchor="middle" x="643.025" y="-14.3" font-family="Times,serif" font-size="14.00">宾: ……站位</text>
</g>
<!-- node&#45;8&#45;&gt;node&#45;10 -->
<g id="edge9" class="edge"><title>node&#45;8&#45;&gt;node&#45;10</title>
<path fill="none" stroke="black" d="M597.549,-72.055C604.919,-63.4567 614.005,-52.8566 622.113,-43.3974"/>
<polygon fill="black" stroke="black" points="624.784,-45.6594 628.634,-35.789 619.469,-41.1038 624.784,-45.6594"/>
</g>
<!-- node&#45;12 -->
<g id="node12" class="node"><title>node&#45;12</title>
<ellipse fill="none" stroke="black" cx="781.025" cy="-18" rx="43.5923" ry="18"/>
<text text-anchor="middle" x="781.025" y="-14.3" font-family="Times,serif" font-size="14.00">谓: 落实</text>
</g>
<!-- node&#45;11&#45;&gt;node&#45;12 -->
<g id="edge11" class="edge"><title>node&#45;11&#45;&gt;node&#45;12</title>
<path fill="none" stroke="black" d="M787.047,-71.6966C786.166,-63.9827 785.106,-54.7125 784.123,-46.1124"/>
<polygon fill="black" stroke="black" points="787.592,-45.6422 782.98,-36.1043 780.638,-46.4371 787.592,-45.6422"/>
</g>
<!-- node&#45;13 -->
<g id="node13" class="node"><title>node&#45;13</title>
<ellipse fill="none" stroke="black" cx="904.025" cy="-18" rx="61.99" ry="18"/>
<text text-anchor="middle" x="904.025" y="-14.3" font-family="Times,serif" font-size="14.00">宾: ……责任</text>
</g>
<!-- node&#45;11&#45;&gt;node&#45;13 -->
<g id="edge12" class="edge"><title>node&#45;11&#45;&gt;node&#45;13</title>
<path fill="none" stroke="black" d="M815.987,-72.5881C832.043,-62.8152 852.573,-50.3185 869.769,-39.8516"/>
<polygon fill="black" stroke="black" points="871.693,-42.7775 878.416,-34.5882 868.054,-36.7981 871.693,-42.7775"/>
</g>
</g>
</svg>
