<?xml version="1.0" encoding="UTF-8" standalone="no"?>
<!DOCTYPE svg PUBLIC "-//W3C//DTD SVG 1.1//EN"
 "http://www.w3.org/Graphics/SVG/1.1/DTD/svg11.dtd">
<!-- Generated by graphviz version 2.38.0 (20140413.2041)
 -->
<!-- Title: %3 Pages: 1 -->
<svg width="912pt" height="352pt"
 viewBox="0.00 0.00 911.98 352.17" xmlns="http://www.w3.org/2000/svg" xmlns:xlink="http://www.w3.org/1999/xlink">
<g id="graph0" class="graph" transform="scale(1 1) rotate(0) translate(4 348.174)">
<title>%3</title>
<polygon fill="white" stroke="none" points="-4,4 -4,-348.174 907.976,-348.174 907.976,4 -4,4"/>
<!-- 140465826389408 -->
<g id="node1" class="node"><title>140465826389408</title>
<ellipse fill="none" stroke="black" cx="273.65" cy="-317.304" rx="273.801" ry="26.7407"/>
<text text-anchor="middle" x="273.65" y="-321.104" font-family="Times,serif" font-size="14.00">简单句</text>
<text text-anchor="middle" x="273.65" y="-306.104" font-family="Times,serif" font-size="14.00">他指出要深入贯彻……论述，提高……站位，落实……责任</text>
</g>
<!-- 140465826389520 -->
<g id="node2" class="node"><title>140465826389520</title>
<ellipse fill="none" stroke="black" cx="196.65" cy="-216.957" rx="27" ry="26.7407"/>
<text text-anchor="middle" x="196.65" y="-220.757" font-family="Times,serif" font-size="14.00">主</text>
<text text-anchor="middle" x="196.65" y="-205.757" font-family="Times,serif" font-size="14.00">他</text>
</g>
<!-- 140465826389408&#45;&gt;140465826389520 -->
<g id="edge1" class="edge"><title>140465826389408&#45;&gt;140465826389520</title>
<path fill="none" stroke="black" d="M253.419,-290.464C242.94,-277.079 230.11,-260.692 219.299,-246.885"/>
<polygon fill="black" stroke="black" points="221.789,-244.387 212.868,-238.671 216.277,-248.702 221.789,-244.387"/>
</g>
<!-- 140465826389576 -->
<g id="node3" class="node"><title>140465826389576</title>
<ellipse fill="none" stroke="black" cx="273.65" cy="-216.957" rx="31.6406" ry="26.7407"/>
<text text-anchor="middle" x="273.65" y="-220.757" font-family="Times,serif" font-size="14.00">谓</text>
<text text-anchor="middle" x="273.65" y="-205.757" font-family="Times,serif" font-size="14.00">指出</text>
</g>
<!-- 140465826389408&#45;&gt;140465826389576 -->
<g id="edge2" class="edge"><title>140465826389408&#45;&gt;140465826389576</title>
<path fill="none" stroke="black" d="M273.65,-290.207C273.65,-279.115 273.65,-265.998 273.65,-254.005"/>
<polygon fill="black" stroke="black" points="277.15,-253.834 273.65,-243.835 270.15,-253.835 277.15,-253.834"/>
</g>
<!-- 140465826389632 -->
<g id="node4" class="node"><title>140465826389632</title>
<ellipse fill="none" stroke="black" cx="566.65" cy="-216.957" rx="243.49" ry="37.4533"/>
<text text-anchor="middle" x="566.65" y="-228.257" font-family="Times,serif" font-size="14.00">并列复句</text>
<text text-anchor="middle" x="566.65" y="-213.257" font-family="Times,serif" font-size="14.00">宾</text>
<text text-anchor="middle" x="566.65" y="-198.257" font-family="Times,serif" font-size="14.00">要深入贯彻……论述，提高……站位，落实……责任</text>
</g>
<!-- 140465826389408&#45;&gt;140465826389632 -->
<g id="edge3" class="edge"><title>140465826389408&#45;&gt;140465826389632</title>
<path fill="none" stroke="black" d="M347.965,-291.359C381.271,-280.18 421.212,-266.774 457.794,-254.495"/>
<polygon fill="black" stroke="black" points="459.146,-257.733 467.513,-251.233 456.919,-251.097 459.146,-257.733"/>
</g>
<!-- 140465826389744 -->
<g id="node5" class="node"><title>140465826389744</title>
<ellipse fill="none" stroke="black" cx="351.65" cy="-116.61" rx="92.7622" ry="26.7407"/>
<text text-anchor="middle" x="351.65" y="-120.41" font-family="Times,serif" font-size="14.00">并行1</text>
<text text-anchor="middle" x="351.65" y="-105.41" font-family="Times,serif" font-size="14.00">深入贯彻……论述</text>
</g>
<!-- 140465826389632&#45;&gt;140465826389744 -->
<g id="edge4" class="edge"><title>140465826389632&#45;&gt;140465826389744</title>
<path fill="none" stroke="black" d="M490.849,-181.284C464.049,-169.024 434.361,-155.444 409.311,-143.986"/>
<polygon fill="black" stroke="black" points="410.503,-140.682 399.953,-139.705 407.591,-147.048 410.503,-140.682"/>
</g>
<!-- 140465826389800 -->
<g id="node9" class="node"><title>140465826389800</title>
<ellipse fill="none" stroke="black" cx="566.65" cy="-116.61" rx="72.25" ry="26.7407"/>
<text text-anchor="middle" x="566.65" y="-120.41" font-family="Times,serif" font-size="14.00">并行2</text>
<text text-anchor="middle" x="566.65" y="-105.41" font-family="Times,serif" font-size="14.00">提高……站位</text>
</g>
<!-- 140465826389632&#45;&gt;140465826389800 -->
<g id="edge8" class="edge"><title>140465826389632&#45;&gt;140465826389800</title>
<path fill="none" stroke="black" d="M566.65,-179.336C566.65,-170.965 566.65,-162.074 566.65,-153.725"/>
<polygon fill="black" stroke="black" points="570.15,-153.518 566.65,-143.518 563.15,-153.518 570.15,-153.518"/>
</g>
<!-- 140465823760456 -->
<g id="node12" class="node"><title>140465823760456</title>
<ellipse fill="none" stroke="black" cx="749.65" cy="-116.61" rx="72.25" ry="26.7407"/>
<text text-anchor="middle" x="749.65" y="-120.41" font-family="Times,serif" font-size="14.00">并行3</text>
<text text-anchor="middle" x="749.65" y="-105.41" font-family="Times,serif" font-size="14.00">落实……责任</text>
</g>
<!-- 140465826389632&#45;&gt;140465823760456 -->
<g id="edge11" class="edge"><title>140465826389632&#45;&gt;140465823760456</title>
<path fill="none" stroke="black" d="M632.201,-180.729C654.803,-168.582 679.709,-155.198 700.747,-143.892"/>
<polygon fill="black" stroke="black" points="702.661,-146.836 709.812,-139.02 699.347,-140.67 702.661,-146.836"/>
</g>
<!-- 140465826389856 -->
<g id="node6" class="node"><title>140465826389856</title>
<ellipse fill="none" stroke="red" cx="223.65" cy="-26.8701" rx="27" ry="26.7407"/>
<text text-anchor="middle" x="223.65" y="-30.6701" font-family="Times,serif" font-size="14.00">主</text>
<text text-anchor="middle" x="223.65" y="-15.6701" font-family="Times,serif" font-size="14.00">他</text>
</g>
<!-- 140465826389744&#45;&gt;140465826389856 -->
<g id="edge5" class="edge"><title>140465826389744&#45;&gt;140465826389856</title>
<path fill="none" stroke="black" d="M315.648,-91.7739C298.591,-80.3847 277.982,-66.4864 259.65,-53.7401 257.751,-52.4193 255.801,-51.0519 253.838,-49.6671"/>
<polygon fill="black" stroke="black" points="255.452,-46.5198 245.275,-43.575 251.394,-52.2238 255.452,-46.5198"/>
</g>
<!-- 140465826389912 -->
<g id="node7" class="node"><title>140465826389912</title>
<ellipse fill="none" stroke="black" cx="320.65" cy="-26.8701" rx="52.1524" ry="26.7407"/>
<text text-anchor="middle" x="320.65" y="-30.6701" font-family="Times,serif" font-size="14.00">谓</text>
<text text-anchor="middle" x="320.65" y="-15.6701" font-family="Times,serif" font-size="14.00">深入贯彻</text>
</g>
<!-- 140465826389744&#45;&gt;140465826389912 -->
<g id="edge6" class="edge"><title>140465826389744&#45;&gt;140465826389912</title>
<path fill="none" stroke="black" d="M342.517,-89.7598C339.553,-81.3702 336.213,-71.9165 333.052,-62.97"/>
<polygon fill="black" stroke="black" points="336.35,-61.7985 329.718,-53.5357 329.75,-64.1305 336.35,-61.7985"/>
</g>
<!-- 140465826389968 -->
<g id="node8" class="node"><title>140465826389968</title>
<ellipse fill="none" stroke="black" cx="443.65" cy="-26.8701" rx="52.1524" ry="26.7407"/>
<text text-anchor="middle" x="443.65" y="-30.6701" font-family="Times,serif" font-size="14.00">宾</text>
<text text-anchor="middle" x="443.65" y="-15.6701" font-family="Times,serif" font-size="14.00">……论述</text>
</g>
<!-- 140465826389744&#45;&gt;140465826389968 -->
<g id="edge7" class="edge"><title>140465826389744&#45;&gt;140465826389968</title>
<path fill="none" stroke="black" d="M377.768,-90.7021C388.386,-80.5757 400.754,-68.7801 411.888,-58.1619"/>
<polygon fill="black" stroke="black" points="414.541,-60.4683 419.362,-51.0339 409.71,-55.4027 414.541,-60.4683"/>
</g>
<!-- 140465823760512 -->
<g id="node10" class="node"><title>140465823760512</title>
<ellipse fill="none" stroke="black" cx="545.65" cy="-26.8701" rx="31.6406" ry="26.7407"/>
<text text-anchor="middle" x="545.65" y="-30.6701" font-family="Times,serif" font-size="14.00">谓</text>
<text text-anchor="middle" x="545.65" y="-15.6701" font-family="Times,serif" font-size="14.00">提高</text>
</g>
<!-- 140465826389800&#45;&gt;140465823760512 -->
<g id="edge9" class="edge"><title>140465826389800&#45;&gt;140465823760512</title>
<path fill="none" stroke="black" d="M560.463,-89.7598C558.498,-81.5487 556.289,-72.3183 554.188,-63.5418"/>
<polygon fill="black" stroke="black" points="557.525,-62.4463 551.793,-53.5357 550.717,-64.0757 557.525,-62.4463"/>
</g>
<!-- 140465823760624 -->
<g id="node11" class="node"><title>140465823760624</title>
<ellipse fill="none" stroke="black" cx="647.65" cy="-26.8701" rx="52.1524" ry="26.7407"/>
<text text-anchor="middle" x="647.65" y="-30.6701" font-family="Times,serif" font-size="14.00">宾</text>
<text text-anchor="middle" x="647.65" y="-15.6701" font-family="Times,serif" font-size="14.00">……站位</text>
</g>
<!-- 140465826389800&#45;&gt;140465823760624 -->
<g id="edge10" class="edge"><title>140465826389800&#45;&gt;140465823760624</title>
<path fill="none" stroke="black" d="M589.645,-90.7021C598.828,-80.7546 609.499,-69.1964 619.165,-58.7258"/>
<polygon fill="black" stroke="black" points="621.779,-61.0542 625.99,-51.3324 616.635,-56.3059 621.779,-61.0542"/>
</g>
<!-- 140465823760736 -->
<g id="node13" class="node"><title>140465823760736</title>
<ellipse fill="none" stroke="black" cx="749.65" cy="-26.8701" rx="31.6406" ry="26.7407"/>
<text text-anchor="middle" x="749.65" y="-30.6701" font-family="Times,serif" font-size="14.00">谓</text>
<text text-anchor="middle" x="749.65" y="-15.6701" font-family="Times,serif" font-size="14.00">落实</text>
</g>
<!-- 140465823760456&#45;&gt;140465823760736 -->
<g id="edge12" class="edge"><title>140465823760456&#45;&gt;140465823760736</title>
<path fill="none" stroke="black" d="M749.65,-89.2852C749.65,-81.3185 749.65,-72.4275 749.65,-63.9391"/>
<polygon fill="black" stroke="black" points="753.15,-63.874 749.65,-53.874 746.15,-63.8741 753.15,-63.874"/>
</g>
<!-- 140465823760792 -->
<g id="node14" class="node"><title>140465823760792</title>
<ellipse fill="none" stroke="black" cx="851.65" cy="-26.8701" rx="52.1524" ry="26.7407"/>
<text text-anchor="middle" x="851.65" y="-30.6701" font-family="Times,serif" font-size="14.00">宾</text>
<text text-anchor="middle" x="851.65" y="-15.6701" font-family="Times,serif" font-size="14.00">……责任</text>
</g>
<!-- 140465823760456&#45;&gt;140465823760792 -->
<g id="edge13" class="edge"><title>140465823760456&#45;&gt;140465823760792</title>
<path fill="none" stroke="black" d="M777.522,-91.6348C789.929,-80.9622 804.653,-68.2967 817.697,-57.077"/>
<polygon fill="black" stroke="black" points="820.266,-59.4834 825.565,-50.3087 815.701,-54.1766 820.266,-59.4834"/>
</g>
</g>
</svg>
